<svg width="75" height="76" viewBox="0 0 75 76" fill="none" xmlns="http://www.w3.org/2000/svg">
<rect width="74.8704" height="76" rx="37.4352" fill="#F0EBF1"/>
<path d="M39.3256 50.2098C38.7951 50.6091 38.2434 50.9816 37.6579 51.304C33.272 48.925 30.2847 44.3066 30.2847 38.9648C30.2847 35.9405 31.2433 33.1498 32.8701 30.8639V30.9102H36.2184C34.6085 33.1868 33.6571 35.959 33.6571 38.9648C33.6571 43.5806 35.89 47.6522 39.3256 50.2098Z" fill="#662F6C"/>
<path d="M39.3254 50.214C39.0656 50.8251 38.7737 51.4236 38.4284 51.9949C33.4407 52.1284 28.544 49.622 25.8731 44.9964C23.8988 41.5761 23.5399 37.682 24.5393 34.1658H27.0947C26.6182 37.2109 27.1296 40.428 28.7939 43.3102C31.101 47.3067 35.0713 49.7173 39.3254 50.214Z" fill="#C41230"/>
<path d="M44.5424 50.1384C43.8763 50.6514 43.1732 51.1193 42.4308 51.5261C38.1544 48.6145 35.3338 43.7357 35.3338 38.169C35.3338 32.9601 37.8053 28.3558 41.6259 25.3995C41.6803 25.448 41.7599 25.4943 41.8127 25.5439C42.0322 25.7476 42.2451 25.9567 42.4521 26.1718C42.5349 26.2579 42.6182 26.3439 42.6993 26.4316C42.9455 26.6996 43.1852 26.9735 43.4139 27.2573C43.4259 27.272 43.4362 27.2889 43.4482 27.3036C40.8269 30.17 39.2203 33.9721 39.2203 38.169C39.2203 41.9809 40.5464 45.4676 42.7538 48.2229C42.7538 48.224 42.7538 48.2251 42.7522 48.2251C42.7631 48.2387 42.7745 48.2501 42.7849 48.2632C43.0092 48.5415 43.2434 48.8111 43.4852 49.0742C43.5936 49.1935 43.7064 49.3089 43.8186 49.4249C43.9465 49.5562 44.0773 49.6836 44.2096 49.81C44.3218 49.9184 44.4269 50.0333 44.5424 50.1384ZM41.6411 25.387C41.6482 25.3821 41.6542 25.3761 41.6613 25.3707L41.6411 25.387Z" fill="#439539"/>
<path d="M50.8704 37.3571C50.8704 42.578 48.3886 47.1921 44.5527 50.1473C43.9008 49.558 43.3023 48.9126 42.7533 48.2258C45.3762 45.3589 46.984 41.5551 46.984 37.3571C46.984 33.5245 45.6436 30.0204 43.415 27.258C43.1863 26.9742 42.9466 26.7003 42.6999 26.4323C42.6188 26.3446 42.536 26.258 42.4532 26.1725C42.2462 25.9569 42.0328 25.7477 41.8138 25.544C41.7604 25.495 41.6798 25.4476 41.6259 25.3992C42.2936 24.8839 43.0289 24.4079 43.7734 24C43.7739 24 43.775 24.0011 43.7756 24.0016C43.7766 24.0016 43.7772 24.0005 43.7777 24C43.9537 24.1198 44.1214 24.2494 44.2913 24.3763C44.3872 24.4466 44.4852 24.5136 44.5794 24.5866C44.5947 24.5986 44.611 24.6089 44.6268 24.6214C44.7216 24.6955 44.812 24.7739 44.9051 24.8496C44.9618 24.8959 45.0162 24.9438 45.0723 24.9907C45.1753 25.0762 45.2782 25.1606 45.3784 25.2488C45.398 25.2657 45.4187 25.2821 45.4378 25.2989C45.4737 25.3305 45.508 25.3643 45.544 25.397C45.5429 25.397 45.5423 25.3981 45.5412 25.3992C48.8074 28.3527 50.8704 32.6014 50.8704 37.3571Z" fill="#FFD200"/>
<path d="M42.7587 48.2326C42.7587 48.2326 42.7538 48.2277 42.7521 48.225C42.7521 48.2239 42.7532 48.2239 42.7538 48.2228C42.0545 47.3498 41.4445 46.4021 40.9363 45.3951C41.2228 42.9845 40.8895 40.4847 39.8596 38.1433C39.8084 38.0273 39.7561 37.9118 39.7022 37.7969C39.7 37.7936 39.6989 37.7904 39.6973 37.7866C39.645 37.6771 39.5917 37.5671 39.5366 37.4581C39.5225 37.4298 39.5072 37.4015 39.4925 37.3732C39.4484 37.2871 39.4043 37.2011 39.3586 37.1161C39.2948 36.9985 39.23 36.8814 39.1625 36.7648C39.0563 36.5813 38.9468 36.4016 38.8335 36.2251C38.8003 36.1733 38.7655 36.1227 38.7317 36.0715C38.6489 35.9457 38.565 35.8204 38.479 35.6979C38.4414 35.6445 38.4027 35.5917 38.3646 35.5394C38.2758 35.4174 38.1854 35.297 38.0934 35.1783C38.0596 35.1342 38.0248 35.0895 37.9899 35.046C37.8826 34.9109 37.7726 34.7775 37.6604 34.6473C37.6402 34.6239 37.6212 34.6005 37.601 34.5776C37.0335 33.9257 36.4137 33.3369 35.7526 32.8124C34.83 32.0821 33.8273 31.4753 32.7686 31.0026C33.2348 30.2172 33.7761 29.4825 34.3817 28.8056C35.8108 29.2816 37.1648 29.9869 38.3853 30.9035C38.4229 30.9318 38.4594 30.9601 38.4964 30.9884C38.6271 31.0887 38.7567 31.191 38.8842 31.2967C38.9348 31.3381 38.9844 31.3806 39.035 31.4231C39.1456 31.5173 39.2551 31.6126 39.3635 31.7106C39.4212 31.7629 39.4778 31.8157 39.5345 31.868C39.6314 31.959 39.7273 32.0516 39.822 32.1452C39.8847 32.2068 39.9462 32.2694 40.0072 32.3326C40.0916 32.4192 40.1749 32.5074 40.2577 32.5973C40.3247 32.6697 40.3906 32.7433 40.456 32.8173C40.5268 32.8974 40.5965 32.9785 40.6657 33.0608C40.7386 33.1468 40.8105 33.2345 40.8819 33.3238C40.932 33.387 40.9826 33.4496 41.0322 33.5139C41.4113 34.0046 41.7636 34.5258 42.0828 35.0786C44.5047 39.2739 44.691 44.1827 42.7587 48.2326Z" fill="#00BCE4"/>
</svg>
