<svg width="75" height="76" viewBox="0 0 75 76" fill="none" xmlns="http://www.w3.org/2000/svg">
<rect width="74.8704" height="76" rx="37.4352" fill="#FFF6CC"/>
<path d="M39.3259 50.2096C38.7954 50.6088 38.2437 50.9814 37.6582 51.3038C33.2722 48.9249 30.2849 44.3065 30.2849 38.9649C30.2849 35.9407 31.2434 33.1501 32.8703 30.8643V30.9106H36.2187C34.6087 33.1871 33.6573 35.9592 33.6573 38.9649C33.6573 43.5806 35.8903 47.6521 39.3259 50.2096ZM44.543 50.1383C44.4275 50.0332 44.3224 49.9183 44.2102 49.8099C44.0778 49.6835 43.9471 49.5561 43.8191 49.4248C43.7069 49.3088 43.5942 49.1934 43.4858 49.0741C43.244 48.8111 43.0098 48.5415 42.7854 48.2632C42.7751 48.2501 42.7636 48.2387 42.7527 48.2251C42.7538 48.2251 42.7544 48.224 42.7544 48.2229C40.5469 45.4677 39.2207 41.981 39.2207 38.1693C39.2207 33.9724 40.8274 30.1705 43.4488 27.3042C43.4368 27.2894 43.4264 27.2726 43.4145 27.2579C43.1857 26.9741 42.9461 26.7002 42.6999 26.4322C42.6187 26.3445 42.5354 26.2585 42.4526 26.1724C42.2457 25.9573 42.0327 25.7482 41.8132 25.5445C41.7604 25.4949 41.6809 25.4486 41.6264 25.4002C37.8058 28.3564 35.3342 32.9605 35.3342 38.1693C35.3342 43.7358 38.1549 48.6145 42.4314 51.526C43.1737 51.1192 43.8769 50.6513 44.543 50.1383ZM41.6618 25.3713C41.6547 25.3768 41.6487 25.3827 41.6417 25.3876L41.6618 25.3713Z" fill="#455560"/>
<path d="M39.3257 50.214C39.0659 50.8251 38.774 51.4236 38.4287 51.9949C33.4409 52.1284 28.5441 49.622 25.8731 44.9966C23.8988 41.5764 23.5399 37.6824 24.5393 34.1664H27.0948C26.6182 37.2113 27.1296 40.4284 28.794 43.3105C31.1011 47.3069 35.0716 49.7173 39.3257 50.214ZM50.8699 37.3567C50.8699 32.6011 48.8073 28.3526 45.5411 25.3991C45.5422 25.398 45.5428 25.3969 45.5439 25.3969C45.5079 25.3643 45.4736 25.3305 45.4377 25.2989C45.4186 25.282 45.3979 25.2657 45.3783 25.2488C45.2781 25.1606 45.1751 25.0762 45.0722 24.9907C45.0161 24.9438 44.9616 24.8959 44.905 24.8496C44.8119 24.7739 44.7215 24.6955 44.6267 24.6214C44.6109 24.6089 44.5946 24.5985 44.5793 24.5866C44.4851 24.5136 44.3871 24.4466 44.2912 24.3763C44.1213 24.2494 43.9535 24.1198 43.7776 24C43.7776 24 43.7765 24.0016 43.7754 24.0016C43.7754 24.0016 43.7738 24.0005 43.7732 24C43.0287 24.4079 42.2935 24.8839 41.6257 25.3991C41.6797 25.4476 41.7603 25.495 41.8136 25.544C42.0326 25.7477 42.2461 25.9568 42.453 26.1725C42.5358 26.258 42.6186 26.3446 42.6998 26.4323C42.9465 26.7002 43.1861 26.9742 43.4149 27.2579C45.6435 30.0202 46.9839 33.5243 46.9839 37.3567C46.9839 41.5546 45.3761 45.3582 42.7531 48.2251C43.3021 48.9119 43.9007 49.5572 44.5526 50.1465C48.3885 47.1914 50.8699 42.5774 50.8699 37.3567ZM42.7597 48.2327C44.6921 44.183 44.5058 39.2743 42.0838 35.0791C41.7646 34.5264 41.4122 34.0052 41.0332 33.5145C40.9836 33.4502 40.933 33.3876 40.8828 33.3244C40.8115 33.2351 40.7396 33.1474 40.6666 33.0613C40.5975 32.9791 40.5277 32.8979 40.4569 32.8179C40.3916 32.7438 40.3257 32.6703 40.2587 32.5979C40.1759 32.508 40.0926 32.4198 40.0082 32.3332C39.9472 32.27 39.8856 32.2074 39.823 32.1458C39.7282 32.0522 39.6324 31.9596 39.5354 31.8686C39.4788 31.8163 39.4221 31.7635 39.3644 31.7112C39.256 31.6132 39.1465 31.5179 39.036 31.4237C38.9853 31.3812 38.9358 31.3387 38.8851 31.2973C38.7577 31.1917 38.628 31.0893 38.4973 30.9891C38.4603 30.9607 38.4238 30.9324 38.3862 30.9041C37.1657 29.9875 35.8117 29.2822 34.3826 28.8062C33.7769 29.4832 33.2356 30.2179 32.7694 31.0032C33.8281 31.476 34.8308 32.0827 35.7534 32.813C36.4146 33.3375 37.0344 33.9262 37.6019 34.5781C37.6221 34.601 37.6412 34.6244 37.6613 34.6478C37.7735 34.778 37.8835 34.9114 37.9908 35.0465C38.0257 35.09 38.0605 35.1347 38.0943 35.1788C38.1863 35.2975 38.2768 35.4179 38.3655 35.5399C38.4037 35.5922 38.4423 35.645 38.4799 35.6984C38.566 35.8209 38.6498 35.9462 38.7326 36.072C38.7664 36.1232 38.8012 36.1738 38.8345 36.2256C38.9477 36.402 39.0572 36.5817 39.1634 36.7653C39.231 36.8818 39.2958 36.9989 39.3595 37.1165C39.4052 37.2015 39.4494 37.2876 39.4935 37.3736C39.5082 37.4019 39.5234 37.4302 39.5376 37.4586C39.5926 37.5675 39.646 37.6775 39.6983 37.787C39.6999 37.7908 39.701 37.7941 39.7032 37.7973C39.7571 37.9122 39.8094 38.0277 39.8606 38.1437C40.8905 40.485 41.2238 42.9848 40.9373 45.3953C41.4455 46.4023 42.0555 47.3499 42.7548 48.2229C42.7548 48.224 42.7537 48.224 42.7531 48.2251C42.7548 48.2278 42.7575 48.2305 42.7597 48.2327Z" fill="#FFD200"/>
</svg>
