<svg width="75" height="76" viewBox="0 0 75 76" fill="none" xmlns="http://www.w3.org/2000/svg">
<rect width="74.8704" height="76" rx="37.4352" fill="#ECF4EB"/>
<path d="M39.3285 50.2124C38.7975 50.6116 38.2458 50.9841 37.6609 51.3065C33.2751 48.9276 30.2874 44.3093 30.2874 38.9677C30.2874 35.9434 31.2459 33.1522 32.8726 30.867V30.9128H36.2204C34.6111 33.1898 33.6596 35.9614 33.6596 38.9677C33.6596 43.5827 35.8925 47.6548 39.328 50.2124M44.5449 50.141C44.4289 50.0364 44.3238 49.921 44.2116 49.8126C44.0792 49.6863 43.9491 49.5583 43.8211 49.4276C43.7083 49.3116 43.5962 49.1956 43.4872 49.0763C43.2454 48.8138 43.0112 48.5442 42.7869 48.2653C42.7765 48.2523 42.7651 48.2408 42.7536 48.2278C42.7547 48.2278 42.7553 48.2261 42.7558 48.2256C40.5485 45.4704 39.2223 41.9837 39.2223 38.1714C39.2223 33.9751 40.8284 30.1726 43.4502 27.3069C43.4382 27.2916 43.4279 27.2753 43.4164 27.2606C43.1871 26.9768 42.9475 26.7023 42.7013 26.4344C42.6202 26.3467 42.5369 26.2607 42.4546 26.1751C42.2471 25.96 42.0342 25.7509 41.8153 25.5467C41.7619 25.4971 41.6824 25.4508 41.6285 25.4029C37.8074 28.3585 35.336 32.9627 35.336 38.1714C35.336 43.7385 38.1565 48.6172 42.4334 51.5281C43.1757 51.1219 43.8788 50.654 44.5449 50.141ZM41.6639 25.3735C41.6568 25.3789 41.6508 25.3844 41.6437 25.3898L41.6639 25.3735Z" fill="#455560"/>
<path d="M39.3251 50.214C39.0653 50.8251 38.7734 51.4236 38.4281 51.9949C33.44 52.1284 28.5439 49.622 25.8731 44.9961C23.8988 41.5759 23.5399 37.6819 24.5393 34.1658H27.0952C26.6187 37.2113 27.1295 40.4278 28.7938 43.3099C31.1014 47.3069 35.0711 49.7168 39.3251 50.214ZM50.8699 37.3567C50.8699 32.6011 48.8074 28.352 45.5414 25.3986C45.5424 25.3975 45.543 25.3964 45.5435 25.3964C45.5076 25.3643 45.4738 25.3305 45.4373 25.2984C45.4183 25.2815 45.3976 25.2657 45.3785 25.2488C45.2778 25.1606 45.1748 25.0767 45.0719 24.9901C45.0158 24.9438 44.9613 24.8954 44.9047 24.8496C44.8116 24.7734 44.7212 24.6955 44.6264 24.6214C44.6112 24.6089 44.5943 24.5991 44.579 24.5866C44.4853 24.5136 44.3873 24.4466 44.2915 24.3763C44.121 24.2494 43.9538 24.1198 43.7779 24C43.7779 24 43.7763 24.0016 43.7757 24.0022C43.7757 24.0011 43.7741 24.0005 43.7735 24C43.029 24.4085 42.2987 24.8883 41.631 25.4035C41.6849 25.4525 41.7557 25.4944 41.8091 25.544C42.028 25.7471 42.2464 25.9574 42.4534 26.1725C42.5367 26.258 42.6195 26.344 42.7001 26.4323C42.9468 26.6997 43.187 26.9742 43.4152 27.2579C45.6443 30.0202 46.984 33.5243 46.984 37.3567C46.984 41.5552 45.3769 45.3582 42.7535 48.2251C43.3024 48.9119 43.901 49.5578 44.5523 50.1465C48.3881 47.1909 50.8704 42.5774 50.8704 37.3562M42.76 48.2322C44.6928 44.1824 44.5066 39.2738 42.0841 35.078C41.765 34.5258 41.4126 34.0041 41.0336 33.5134C40.984 33.4491 40.9334 33.3859 40.8833 33.3233C40.8119 33.2345 40.7395 33.1463 40.667 33.0602C40.5979 32.978 40.5282 32.8969 40.4574 32.8168C40.392 32.7427 40.3256 32.6692 40.2586 32.5968C40.1763 32.5075 40.093 32.4192 40.0086 32.3326C39.9471 32.2689 39.8855 32.2068 39.8229 32.1453C39.7281 32.0516 39.6323 31.959 39.5353 31.8681C39.4787 31.8152 39.422 31.7635 39.3649 31.7112C39.2565 31.6132 39.1465 31.5173 39.0354 31.4231C38.9853 31.3812 38.9357 31.3382 38.8851 31.2968C38.7571 31.1917 38.6274 31.0893 38.4967 30.9885C38.4603 30.9602 38.4238 30.9313 38.3862 30.9036C37.1652 29.9864 35.8118 29.2817 34.3827 28.8057C33.7765 29.4827 33.2357 30.2168 32.769 31.0021C33.8283 31.4754 34.8309 32.0821 35.753 32.8124C36.4141 33.3369 37.0344 33.9262 37.6019 34.5775C37.6221 34.6004 37.6411 34.6238 37.6613 34.6473C37.7735 34.7774 37.8835 34.9103 37.9908 35.0459C38.0256 35.0895 38.06 35.1341 38.0948 35.1783C38.1869 35.297 38.2767 35.4173 38.3655 35.5393C38.4036 35.5922 38.4423 35.6444 38.4799 35.6978C38.5659 35.8204 38.6503 35.9456 38.7326 36.0714C38.7663 36.1221 38.8012 36.1727 38.8344 36.225C38.9471 36.4015 39.0572 36.5812 39.1634 36.7647C39.2309 36.8813 39.2957 36.9984 39.3594 37.116C39.4052 37.201 39.4493 37.287 39.4934 37.3725C39.5081 37.4014 39.5228 37.4297 39.5375 37.4575C39.5925 37.5664 39.6459 37.6764 39.6982 37.7864C39.6993 37.7897 39.7003 37.793 39.7025 37.7962C39.7564 37.9111 39.8093 38.0266 39.8605 38.1426C40.8898 40.4834 41.2236 42.9832 40.9372 45.3942C41.4448 46.4017 42.0553 47.3488 42.7546 48.2218C42.7535 48.2229 42.7529 48.2235 42.7524 48.224C42.7546 48.2262 42.7567 48.2295 42.7589 48.2316" fill="#439539"/>
</svg>
