<svg width="75" height="76" viewBox="0 0 75 76" fill="none" xmlns="http://www.w3.org/2000/svg">
<rect width="74.8704" height="76" rx="37.4352" fill="#FFF6CC"/>
<path d="M39.3258 50.2094C38.7953 50.6086 38.2436 50.9811 37.6581 51.3035C33.2726 48.9246 30.2847 44.3063 30.2847 38.9652C30.2847 35.9409 31.2438 33.1498 32.8701 30.8645V30.9103H36.2186C34.6086 33.1873 33.6571 35.9589 33.6571 38.9652C33.6571 43.5803 35.8902 47.6519 39.3258 50.2094Z" fill="#C41230"/>
<path d="M39.3259 50.214C39.0661 50.8251 38.7742 51.4236 38.4289 51.9949C33.441 52.1284 28.5447 49.622 25.8732 44.9966C23.8988 41.5764 23.5399 37.6829 24.5393 34.1663H27.0954C26.6182 37.2118 27.1297 40.4283 28.7941 43.3104C31.1018 47.3069 35.0717 49.7173 39.3259 50.214Z" fill="#FFD200"/>
<path d="M44.5429 50.1378C43.8768 50.6514 43.1736 51.1187 42.4313 51.5255C38.1547 48.6145 35.334 43.7358 35.334 38.1693C35.334 32.9605 37.8056 28.3563 41.6263 25.4001C41.6807 25.4486 41.7603 25.4949 41.8131 25.5444C42.0326 25.7481 42.2455 25.9573 42.4525 26.1724C42.5353 26.2584 42.6186 26.3445 42.6998 26.4322C42.946 26.6996 43.1856 26.9741 43.4143 27.2578C43.4263 27.2725 43.4367 27.2894 43.4487 27.3041C40.8273 30.1704 39.2206 33.9724 39.2206 38.1693C39.2206 41.981 40.5468 45.4671 42.7542 48.2229C42.7542 48.2235 42.7537 48.2246 42.7526 48.2251C42.7635 48.2382 42.7749 48.2502 42.7853 48.2632C43.0097 48.5415 43.2439 48.8111 43.4857 49.0736C43.5941 49.1929 43.7068 49.3089 43.819 49.4249C43.947 49.5556 44.0777 49.683 44.2101 49.8094C44.3217 49.9178 44.4268 50.0332 44.5429 50.1378ZM41.6415 25.3876C41.6486 25.3827 41.6546 25.3767 41.6617 25.3712L41.6415 25.3876Z" fill="#C41230"/>
<path d="M50.8705 37.3568C50.8705 42.5775 48.3886 47.1915 44.5527 50.1466C43.9007 49.5573 43.3022 48.912 42.7531 48.2252C45.3762 45.3583 46.984 41.5547 46.984 37.3568C46.984 33.5243 45.6436 30.0202 43.4149 27.2579C43.1861 26.9742 42.9465 26.7002 42.6998 26.4323C42.6192 26.3446 42.5358 26.258 42.453 26.1725C42.2461 25.9574 42.0326 25.7477 41.8136 25.544C41.7603 25.495 41.6797 25.4481 41.6257 25.3991C42.294 24.8839 43.0287 24.4085 43.7733 24C43.7744 24.0005 43.7749 24.0011 43.7754 24.0022C43.7765 24.0016 43.7776 24.0005 43.7776 24C43.9535 24.1198 44.1218 24.25 44.2923 24.3763C44.3876 24.4466 44.4857 24.5141 44.5799 24.5866C44.5951 24.5985 44.6115 24.6089 44.6273 24.6214C44.722 24.6955 44.8125 24.7739 44.9056 24.8496C44.9622 24.8959 45.0167 24.9444 45.0728 24.9907C45.1757 25.0762 45.2787 25.1611 45.3794 25.2488C45.3985 25.2657 45.4192 25.282 45.4383 25.2989C45.4742 25.3305 45.5085 25.3643 45.5445 25.3969C45.5434 25.3975 45.5428 25.398 45.5417 25.3991C48.808 28.3526 50.8705 32.6012 50.8705 37.3568Z" fill="#FFD200"/>
<path d="M42.7595 48.2327C44.6919 44.1829 44.5056 39.2742 42.0841 35.079C41.7644 34.5268 41.412 34.005 41.033 33.5143C40.9834 33.4501 40.9327 33.3874 40.8826 33.3242C40.8113 33.2355 40.7394 33.1478 40.6664 33.0612C40.5972 32.979 40.5275 32.8978 40.4567 32.8178C40.3914 32.7437 40.3255 32.6707 40.2585 32.5977C40.1757 32.5084 40.0929 32.4202 40.0079 32.333C39.9469 32.2699 39.8854 32.2072 39.8227 32.1457C39.728 32.052 39.6321 31.9594 39.5352 31.8685C39.4785 31.8162 39.4219 31.7634 39.3647 31.7116C39.2563 31.6136 39.1463 31.5177 39.0357 31.4235C38.9851 31.381 38.9355 31.3386 38.8849 31.2972C38.7574 31.1915 38.6278 31.0891 38.4971 30.9889C38.4606 30.9606 38.4236 30.9323 38.386 30.904C37.1654 29.9874 35.812 29.2821 34.3828 28.8066C33.7766 29.4836 33.2353 30.2177 32.769 31.0031C33.8278 31.4758 34.8305 32.0825 35.7532 32.8129C36.4149 33.3379 37.0347 33.9266 37.6017 34.578C37.6218 34.6008 37.6409 34.6248 37.661 34.6482C37.7732 34.7778 37.8833 34.9113 37.9906 35.0463C38.0254 35.0899 38.0603 35.1346 38.0946 35.1787C38.1861 35.2974 38.2765 35.4178 38.3653 35.5398C38.4034 35.5926 38.4421 35.6449 38.4797 35.6982C38.5657 35.8208 38.6501 35.946 38.7324 36.0719C38.7661 36.123 38.801 36.1737 38.8342 36.226C38.9475 36.4024 39.057 36.5822 39.1632 36.7652C39.2307 36.8817 39.2955 36.9988 39.3593 37.117C39.405 37.2019 39.4491 37.2874 39.4932 37.3735C39.5079 37.4018 39.5232 37.4301 39.5374 37.459C39.5924 37.5674 39.6457 37.6774 39.698 37.7874C39.6997 37.7907 39.7007 37.7945 39.7029 37.7978C39.7568 37.9127 39.8091 38.0281 39.8603 38.1436C40.8903 40.4849 41.2236 42.9847 40.9371 45.3952C41.4452 46.4022 42.0553 47.3498 42.7546 48.2229C42.754 48.2239 42.7535 48.2239 42.7529 48.225C42.7546 48.2278 42.7573 48.2305 42.7595 48.2327Z" fill="#FFD200"/>
</svg>
